<svg t="1707905070858" class="icon" viewBox="0 0 1024 1024" version="1.1" xmlns="http://www.w3.org/2000/svg" p-id="7132" width="200" height="200"><path d="M512 540.36992c85.12 0 154.36288-68.92544 154.36288-153.63584S597.12 233.10848 512 233.10848s-154.37312 68.9152-154.37312 153.63072S426.88 540.36992 512 540.36992z m0-245.80608c51.13344 0.05632 92.5696 41.2928 92.62592 92.17536 0 50.90816-41.47712 92.18048-92.62592 92.18048-51.15904 0-92.6208-41.27232-92.6208-92.18048 0-50.90816 41.46176-92.17536 92.6208-92.17536z m425.47712 626.05312l-123.4944-153.6256a30.92992 30.92992 0 0 0-24.11008-11.53536h-61.7472c-17.05472 0-30.88384 13.75744-30.88384 30.72 0 16.96768 13.82912 30.72512 30.88384 30.72512h46.90432l74.10176 92.1856H174.86336l74.10688-92.1856h46.90944c17.0496 0 30.8736-13.76256 30.8736-30.72512s-13.824-30.72-30.8736-30.72H234.12736a30.91456 30.91456 0 0 0-24.10496 11.53536l-123.50464 153.6256a30.65856 30.65856 0 0 0-6.7584 19.2c0 16.96768 13.81888 30.72512 30.8736 30.72512h802.73408a31.00672 31.00672 0 0 0 19.29728-6.7328 30.63296 30.63296 0 0 0 4.92544-43.04384l-0.11264-0.14848zM272.11776 626.00192l0.03584 0.0256 218.01984 216.97024a30.9248 30.9248 0 0 0 21.83168 9.00096 30.9248 30.9248 0 0 0 21.83168-9.00096l218.32192-217.2672 0.24064-0.24576c132.6336-132.12672 132.52096-346.23488-0.24064-478.22848-132.77184-131.9936-347.90912-131.88608-480.54272 0.24576-132.6336 132.12672-132.52096 346.24 0.24576 478.22848 0.07168 0.08704 0.16384 0.1792 0.256 0.27136z m43.39712-434.79552c108.51328-107.99616 284.45184-107.99616 392.97024 0 108.50816 107.99104 108.50816 283.07968 0 391.07584L512 777.82016l-196.48512-195.53792c-108.51328-107.99616-108.51328-283.0848 0-391.07584z" p-id="7133"></path></svg>