<svg t="1705583038340" class="icon" viewBox="0 0 1024 1024" version="1.1" xmlns="http://www.w3.org/2000/svg" p-id="6332" width="200" height="200"><path d="M637.623763 0.000131L1006.670642 378.748752v563.331138c0 10.765125-2.179281 21.398969-6.393434 31.350146a81.801825 81.801825 0 0 1-18.221944 26.57148c-7.798152 7.614357-17.066662 13.65333-27.267275 17.762457a85.924081 85.924081 0 0 1-32.164094 6.235896H110.303282a85.149517 85.149517 0 0 1-59.418241-23.998353A80.882851 80.882851 0 0 1 26.256535 942.07989V81.92011c0-21.727174 8.848408-42.56163 24.615378-57.921626A85.149517 85.149517 0 0 1 110.277026 0.000131H637.636891z m62.674035 779.395082H297.629593c-9.294767 0-18.195688 3.597127-24.759788 10.00369a33.700094 33.700094 0 0 0-10.266254 24.129635c0 9.058459 3.689025 17.736201 10.266254 24.142763 6.564101 6.393434 15.465022 9.990562 24.759788 9.990562h402.668205c9.281639 0 18.195688-3.583999 24.759788-9.990562s10.253126-15.084304 10.253126-24.142763-3.675896-17.723072-10.239997-24.129635a35.485529 35.485529 0 0 0-24.772917-10.00369zM606.260489 67.925447V324.397997c0 20.283072 7.706254 39.844092 21.635276 54.90214a84.808183 84.808183 0 0 0 53.786243 26.610865l8.6121 0.406974h246.022501L606.260489 67.925447z" p-id="6333"></path></svg>