<svg t="1706758298326" class="icon" viewBox="0 0 1024 1024" version="1.1" xmlns="http://www.w3.org/2000/svg" p-id="4221" width="200" height="200"><path d="M454.4 476.8c124.8 0 224-99.2 227.2-220.8-6.4-124.8-112-220.8-236.8-214.4-118.4 6.4-208 99.2-214.4 214.4 0 124.8 102.4 220.8 224 220.8z m0-368c83.2 0 150.4 64 150.4 147.2 0 83.2-67.2 150.4-150.4 150.4S304 339.2 304 256c3.2-83.2 70.4-147.2 150.4-147.2z m-105.6 406.4h-9.6c-169.6 3.2-297.6 118.4-297.6 284.8v22.4c6.4 83.2 147.2 96 323.2 96h64v-73.6h-89.6c-153.6 0-220.8-19.2-220.8-28.8v-25.6c3.2-121.6 96-201.6 233.6-201.6h224c6.4 0 12.8 3.2 19.2 3.2l64-64c-28.8-9.6-60.8-12.8-92.8-12.8h-217.6z" fill="#231815" p-id="4222"></path><path d="M960 694.4l-294.4 294.4h-176v-176l300.8-300.8c28.8-25.6 73.6-25.6 102.4 0l76.8 76.8c19.2 32 19.2 76.8-9.6 105.6z m-425.6 246.4h76.8L537.6 864l-3.2 76.8z m355.2-329.6l-25.6-22.4c-12.8-12.8-35.2-12.8-51.2 0l-227.2 227.2 76.8 76.8 227.2-227.2c12.8-16 12.8-38.4 0-54.4z" p-id="4223"></path></svg>