<svg t="1705583068393" class="icon" viewBox="0 0 1024 1024" version="1.1" xmlns="http://www.w3.org/2000/svg" p-id="7325" width="200" height="200"><path d="M9.6 0m115.825811 0l232.291545 0q115.825811 0 115.825811 115.825811l0 232.291545q0 115.825811-115.825811 115.825811l-232.291545 0q-115.825811 0-115.825811-115.825811l0-232.291545q0-115.825811 115.825811-115.825811Z" p-id="7326"></path><path d="M9.6 540.73376m115.825811 0l232.291545 0q115.825811 0 115.825811 115.825811l0 232.291545q0 115.825811-115.825811 115.825811l-232.291545 0q-115.825811 0-115.825811-115.825811l0-232.291545q0-115.825811 115.825811-115.825811Z" p-id="7327"></path><path d="M550.33376 0m115.825811 0l232.291545 0q115.825811 0 115.825811 115.825811l0 232.291545q0 115.825811-115.825811 115.825811l-232.291545 0q-115.825811 0-115.825811-115.825811l0-232.291545q0-115.825811 115.825811-115.825811Z" p-id="7328"></path><path d="M987.400219 630.962707l-188.776874-106.866909a37.755375 37.755375 0 0 0-38.395297 0l-191.976483 106.866909a39.67514 39.67514 0 0 0-19.83757 34.555767v212.453974a39.035218 39.035218 0 0 0 19.83757 33.915846l191.976483 106.866908a37.755375 37.755375 0 0 0 38.395297 0l188.776874-106.866908a39.035218 39.035218 0 0 0 19.83757-33.915846V665.518474a39.67514 39.67514 0 0 0-19.83757-34.555767zM777.505932 872.213154a101.107614 101.107614 0 1 1 100.467692-101.107614A100.467693 100.467693 0 0 1 777.505932 872.213154z" p-id="7329"></path></svg>