<svg t="1705583163050" class="icon" viewBox="0 0 1214 1024" version="1.1" xmlns="http://www.w3.org/2000/svg" p-id="14395" width="200" height="200"><path d="M772.4864 825.6a251.52 251.52 0 0 1 336-238.08V133.76A133.76 133.76 0 0 0 976.6464 0H131.2064A132.48 132.48 0 0 0 0.0064 133.76v600.96a133.12 133.12 0 0 0 131.2 134.4h282.88l64 90.24 5.76 6.4a102.4 102.4 0 0 0 70.4 27.52 98.56 98.56 0 0 0 71.04-31.36l67.84-94.08h81.28a314.24 314.24 0 0 1-1.92-42.24z m-483.2-320a71.04 71.04 0 0 1 0-142.08 71.04 71.04 0 0 1 0 142.08z m264.96 0a71.04 71.04 0 0 1 0-142.08 71.68 71.68 0 0 1 68.48 67.84A70.4 70.4 0 0 1 554.2464 505.6z m197.12-67.84a71.04 71.04 0 0 1 67.84-74.24 71.04 71.04 0 1 1-67.84 74.24z" p-id="14396"></path><path d="M1130.2464 867.2h7.04a19.84 19.84 0 0 0 19.84-19.84v-39.68a19.84 19.84 0 0 0-19.84-19.84h-7.04a112 112 0 0 0-21.76-37.76l3.84-5.76a19.84 19.84 0 0 0-7.68-26.88l-35.2-19.84a19.84 19.84 0 0 0-27.52 7.04l-3.2 5.76a124.16 124.16 0 0 0-43.52 0l-3.2-5.76a19.2 19.2 0 0 0-12.16-8.96 17.28 17.28 0 0 0-14.72 0l-34.56 19.2a19.84 19.84 0 0 0-7.04 27.52l3.2 5.76a116.48 116.48 0 0 0-21.76 37.76h-7.04a19.84 19.84 0 0 0-14.08 5.76 23.04 23.04 0 0 0-5.76 14.08v39.68a19.84 19.84 0 0 0 19.84 19.84h7.04a120.32 120.32 0 0 0 21.76 37.12l-3.2 6.4a19.2 19.2 0 0 0 7.04 26.88l34.56 19.84a20.48 20.48 0 0 0 26.88-7.04l3.2-6.4a99.84 99.84 0 0 0 43.52 0l3.2 6.4a19.2 19.2 0 0 0 12.16 8.96 21.12 21.12 0 0 0 15.36 0l33.92-19.84a19.84 19.84 0 0 0 7.68-26.88l-3.84-5.76a118.4 118.4 0 0 0 23.04-37.76zM1016.3264 1024a198.4 198.4 0 1 1 198.4-198.4 198.4 198.4 0 0 1-198.4 198.4z m0-136.96a59.52 59.52 0 1 1 59.52-59.52 59.52 59.52 0 0 1-58.88 62.08z" p-id="14397"></path></svg>