<svg t="1705662666541" class="icon" viewBox="0 0 1170 1024" version="1.1" xmlns="http://www.w3.org/2000/svg" p-id="15557" width="200" height="200"><path d="M1040.603429 642.706286h-100.059429a40.228571 40.228571 0 0 1-40.667429-40.667429 40.228571 40.228571 0 0 1 40.667429-40.667428h100.059429a40.228571 40.228571 0 0 1 40.667428 40.667428 40.228571 40.228571 0 0 1-40.667428 40.667429zM836.388571 391.314286a40.155429 40.155429 0 0 1-28.452571-69.12l70.802286-70.802286a40.155429 40.155429 0 0 1 57.709714 0 40.740571 40.740571 0 0 1 0 57.051429l-71.533714 71.460571a42.422857 42.422857 0 0 1-28.525715 11.410286zM586.605714 875.373714a145.481143 145.481143 0 0 1-145.627428-145.554285c0-79.725714 145.554286-323.072 145.554285-323.072S731.428571 650.020571 731.428571 729.746286c0 80.603429-65.097143 145.627429-144.822857 145.627428zM362.788571 379.904a43.593143 43.593143 0 0 1-28.379428 11.410286 44.178286 44.178286 0 0 1-29.257143-11.410286l-70.802286-71.533714a39.277714 39.277714 0 0 1 0-56.978286 40.228571 40.228571 0 0 1 57.782857 0l70.729143 70.802286a41.618286 41.618286 0 0 1 0 57.782857zM230.326857 642.706286h-100.937143a40.228571 40.228571 0 0 1-40.594285-40.667429 40.228571 40.228571 0 0 1 40.667428-40.667428h100.864c21.942857 0 40.740571 17.846857 40.740572 40.667428a40.813714 40.813714 0 0 1-40.740572 40.667429z m314.075429-496.274286c0-22.820571 18.724571-40.667429 40.667428-40.667429a40.228571 40.228571 0 0 1 40.667429 40.667429V246.491429a40.228571 40.228571 0 0 1-40.667429 40.667428 40.740571 40.740571 0 0 1-40.667428-40.667428V146.432zM584.996571 0A585.069714 585.069714 0 0 0 0 584.923429c0 152.941714 50.468571 305.078857 146.505143 409.234285h876.982857c96.036571-104.155429 146.505143-256.292571 146.505143-409.234285A585.069714 585.069714 0 0 0 584.996571 0z" p-id="15558"></path></svg>