<svg t="1705583404912" class="icon" viewBox="0 0 1024 1024" version="1.1" xmlns="http://www.w3.org/2000/svg" p-id="24807" width="200" height="200"><path d="M768 800h96a48 48 0 0 0 48-48V416a48 48 0 0 0-48-48h-96a48 48 0 0 0-48 48v336a48 48 0 0 0 48 48z m-272 0h96a48 48 0 0 0 48-48V224a48 48 0 0 0-48-48h-96a48 48 0 0 0-48 48v528a48 48 0 0 0 48 48z m480 48H96V128a48 48 0 1 0-96 0v768a48 48 0 0 0 48 48h928a48 48 0 1 0 0-96z m-752-48h96a48 48 0 0 0 48-48v-96a48 48 0 0 0-48-48h-96a48 48 0 0 0-48 48v96a48 48 0 0 0 48 48z" p-id="24808"></path></svg>