<svg t="1701871495526" class="icon" viewBox="0 0 1024 1024" version="1.1" xmlns="http://www.w3.org/2000/svg" p-id="13185" width="200" height="200"><path d="M248.931097 935.913978a33.032258 33.032258 0 0 1-33.010237-31.793548l-0.022021-1.23871-0.005506-357.849462H121.11828c-28.589419 0-43.310796-33.57729-25.049463-54.56929l0.825807-0.919398 0.864344-0.902882 390.88172-390.88172a33.032258 33.032258 0 0 1 45.71114-0.963441l1.007484 0.963441 390.88172 390.88172c20.507527 20.513032 6.485333 55.378581-22.109591 56.375054L902.88172 545.032258h-88.80172v357.849462a33.032258 33.032258 0 0 1-30.565849 32.944172l-1.227699 0.066065-1.23871 0.022021H248.931097zM512 167.831398L200.858151 478.967742h48.072946a33.032258 33.032258 0 0 1 32.938666 30.565849l0.066065 1.227699 0.027527 1.23871-0.005506 357.849462H390.88172v-214.709677a27.526882 27.526882 0 0 1 27.526882-27.526882h187.182796a27.526882 27.526882 0 0 1 27.526882 27.526882v214.709677h114.897204V512a33.032258 33.032258 0 0 1 30.565849-32.944172l1.227699-0.066065 1.23871-0.022021h42.088602L512 167.831398zM567.053763 693.677419H456.946237v176.172043h110.107526v-176.172043z" fill="" p-id="13186"></path></svg>