<svg t="1705583213155" class="icon" viewBox="0 0 1024 1024" version="1.1" xmlns="http://www.w3.org/2000/svg" p-id="18810" width="200" height="200"><path d="M921.360374 860.655226l-27.556942-20.76755v-47.925117l27.556942-20.767551c10.383775-6.789392 10.383775-17.173167 6.789392-27.556942l-34.346334-61.903277c-6.789392-10.383775-17.173167-13.978159-27.556942-6.789391l-31.151326 13.978159c-10.383775-10.383775-23.962559-17.173167-37.940718-23.962559l-3.594384-34.346333c0-10.383775-10.383775-20.767551-20.76755-20.767551h-72.287052c-10.383775 0-20.767551 6.789392-20.76755 20.767551l-3.594384 34.346333c-13.578783 6.789392-27.556942 13.978159-37.940718 23.962559l-31.151326-13.978159c-10.383775-3.594384-20.767551 0-27.556942 6.789391l-34.346334 61.903277c-6.789392 10.383775-3.594384 20.767551 6.789392 27.556942l27.556942 20.767551V840.287051l-31.151326 20.767551c-10.383775 6.789392-10.383775 17.173167-6.789392 27.556942l34.346334 61.903277c6.789392 10.383775 17.173167 13.978159 27.556942 6.789391l31.151326-13.978159c10.383775 10.383775 23.962559 17.173167 37.940718 23.962559l3.594384 34.346333c0 10.383775 10.383775 20.767551 20.76755 20.767551h72.287052c10.383775 0 20.767551-6.789392 20.767551-20.767551l3.594383-34.346333c13.578783-6.789392 27.556942-13.978159 37.940718-23.962559l31.151326 13.978159c10.383775 3.594384 20.767551 0 27.556942-6.789391l34.346334-61.903277c10.383775-10.783151 7.188768-21.166927-3.195008-27.956318zM735.650546 888.212168c-37.940718 0-68.692668-31.151326-68.692668-69.092043s31.151326-69.092044 68.692668-69.092044c37.940718 0 68.692668 31.151326 68.692668 69.092044S773.191888 888.212168 735.650546 888.212168z" p-id="18811"></path><path d="M576.299532 1018.408736H120.212168c-28.75507 0-51.918877-23.563183-51.918876-52.717628V53.516381c0-28.75507 23.163807-52.318253 51.918876-52.717629h276.767551v298.333853c-0.399376 57.909516 45.928237 105.035881 103.837754 105.435258h328.686427v198.090483c-32.74883-16.773791-68.692668-25.560062-105.435257-25.560062-133.790952 2.396256-240.823713 113.023401-238.427457 247.213728-0.399376 75.082683 33.148206 146.171607 90.658346 194.096724z m253.204368-666.558502h-328.686427c-28.75507-0.399376-51.918877-23.962559-51.918877-52.717629V0l380.605304 351.850234z" p-id="18812"></path></svg>