<svg t="1702412235017" class="icon" viewBox="0 0 1024 1024" version="1.1" xmlns="http://www.w3.org/2000/svg" p-id="8390" width="200" height="200"><path d="M479.725946 192.32426h63.96073v703.567014h-63.96073z" p-id="8391"></path><path d="M159.922293 512.12689h703.567013v63.960731H159.922293z" p-id="8392"></path><path d="M511.706311 192.069457m-31.980365 0a31.980365 31.980365 0 1 0 63.96073 0 31.980365 31.980365 0 1 0-63.96073 0Z" p-id="8393"></path><path d="M863.489306 544.107255m-31.980365 0a31.980365 31.980365 0 1 0 63.960731 0 31.980365 31.980365 0 1 0-63.960731 0Z" p-id="8394"></path><path d="M511.706311 895.891274m-31.980365 0a31.980365 31.980365 0 1 0 63.96073 0 31.980365 31.980365 0 1 0-63.96073 0Z" p-id="8395"></path><path d="M159.922293 544.107255m-31.980366 0a31.980365 31.980365 0 1 0 63.960731 0 31.980365 31.980365 0 1 0-63.960731 0Z" p-id="8396"></path></svg>