<svg t="1705513416066" class="icon" viewBox="0 0 1024 1024" version="1.1" xmlns="http://www.w3.org/2000/svg" p-id="6006" width="200" height="200"><path d="M948.7 492.6L811.5 321.2c-5.7-5.7-17.1-11.4-28.6-11.4h-11.4c-11.4 5.7-22.9 17.1-22.9 34.3V447H474.2c-40 0-68.6 28.6-68.6 68.6s28.6 68.6 68.6 68.6h274.4V687c0 17.1 11.4 28.6 22.9 34.3h11.4c11.4 0 22.9-5.7 28.6-11.4l137.2-171.5c5.7-11.5 5.7-28.6 0-45.8zM611.4 789.9H337c-40 0-68.6-28.6-68.6-68.6V304c0-40 28.6-68.6 68.6-68.6h274.4c40 0 68.6-28.6 68.6-68.6s-28.6-68.6-68.6-68.6h-343c-74.3 0-137.2 62.9-137.2 137.2v554.5c0 74.3 62.9 137.2 137.2 137.2h343c40 0 68.6-28.6 68.6-68.6 0-34.3-34.3-68.6-68.6-68.6z" fill="" p-id="6007"></path></svg>