<svg t="1705514782156" class="icon" viewBox="0 0 1024 1024" version="1.1" xmlns="http://www.w3.org/2000/svg" p-id="13014" width="200" height="200"><path d="M470.784 690.858667H86.613333c-21.418667 0-38.741333-19.114667-38.741333-42.666667s17.322667-42.666667 38.741333-42.666667h384.085334c21.418667 0 38.741333 19.114667 38.741333 42.666667s-17.322667 42.666667-38.656 42.666667zM470.784 449.877333H86.613333c-21.418667 0-38.741333-19.114667-38.741333-42.666666s17.322667-42.666667 38.741333-42.666667h384.085334c21.418667 0 38.741333 19.114667 38.741333 42.666667s-17.322667 42.666667-38.656 42.666666zM934.058667 208.981333H84.394667c-21.418667 0-38.741333-19.114667-38.741334-42.666666s17.322667-42.666667 38.741334-42.666667h849.664c21.418667 0 38.741333 19.114667 38.741333 42.666667s-17.322667 42.666667-38.741333 42.666666zM931.754667 931.754667H82.090667c-21.418667 0-38.741333-19.114667-38.741334-42.666667s17.322667-42.666667 38.741334-42.666667h849.664c21.418667 0 38.741333 19.114667 38.741333 42.666667s-17.322667 42.666667-38.741333 42.666667zM931.754667 724.992c-5.546667 0-11.093333-1.28-16.298667-3.925333L610.218667 565.418667c-13.738667-6.997333-22.442667-22.101333-22.442667-38.741334 0-16.64 8.789333-31.744 22.442667-38.741333l305.237333-155.648c12.032-6.144 26.026667-5.12 37.12 2.730667 11.178667 7.850667 17.92 21.418667 17.92 35.925333v311.296c0 14.592-6.741333 28.074667-17.92 35.925333-6.229333 4.522667-13.482667 6.826667-20.821333 6.826667z" fill="#040000" p-id="13015"></path></svg>