<svg t="1705514795066" class="icon" viewBox="0 0 1024 1024" version="1.1" xmlns="http://www.w3.org/2000/svg" p-id="13314" width="200" height="200"><path d="M553.216 333.141333L937.386667 333.141333c21.418667 0 38.741333 19.114667 38.741333 42.666667s-17.322667 42.666667-38.741333 42.666667l-384.085334 0c-21.418667 0-38.741333-19.114667-38.741333-42.666667s17.322667-42.666667 38.656-42.666667zM553.216 574.122667L937.386667 574.122667c21.418667 0 38.741333 19.114667 38.741333 42.666666s-17.322667 42.666667-38.741333 42.666667l-384.085334 0c-21.418667 0-38.741333-19.114667-38.741333-42.666667s17.322667-42.666667 38.656-42.666666zM89.941333 815.018667L939.605333 815.018667c21.418667 0 38.741333 19.114667 38.741334 42.666666s-17.322667 42.666667-38.741334 42.666667l-849.664 0c-21.418667 0-38.741333-19.114667-38.741333-42.666667s17.322667-42.666667 38.741333-42.666666zM92.245333 92.245333L941.909333 92.245333c21.418667 0 38.741333 19.114667 38.741334 42.666667s-17.322667 42.666667-38.741334 42.666667l-849.664 0c-21.418667 0-38.741333-19.114667-38.741333-42.666667s17.322667-42.666667 38.741333-42.666667zM92.245333 299.008c5.546667 0 11.093333 1.28 16.298667 3.92533299L413.781333 458.581333c13.738667 6.99733299 22.442667 22.101333 22.44266699 38.741334 0 16.64-8.789333 31.744-22.44266699 38.741333l-305.237333 155.648c-12.032 6.14399999-26.026667 5.12-37.12-2.730667-11.178667-7.850667-17.92-21.418667-17.92-35.925333l0-311.296c0-14.592 6.74133299-28.074667 17.92-35.925333 6.229333-4.522667 13.482667-6.82666699 20.821333-6.826667z" fill="#040000" p-id="13315"></path></svg>