<svg t="1705583100592" class="icon" viewBox="0 0 1024 1024" version="1.1" xmlns="http://www.w3.org/2000/svg" p-id="9150" width="200" height="200"><path d="M437.36213333 117.87413333c-20.93546667-9.10293333-39.59466667-14.1088-56.8896-14.1088h108.77226667c17.29386667 0 35.95306667 4.55146667 56.88853333 14.1088 20.48 9.10186667 37.31946667 20.48 49.60746667 33.67786667l199.79306667 215.2672c-16.384-2.73066667-32.768-4.096-50.06186667-4.096-19.57013333 0-38.6848 1.8208-57.344 5.46133333L486.96853333 151.552c-12.288-13.19786667-28.672-24.576-49.6064-33.67786667zM499.712 888.832c-8.192 4.096-16.384 6.3712-25.94133333 6.3712-16.83946667 0-31.40266667-6.3712-43.69066667-19.11466667l-345.8848-374.10133333c-12.288-12.7424-22.7552-30.49173333-31.40266667-52.79253333-8.6464-22.3008-12.7424-42.7808-12.7424-60.98453334V103.30986667l263.50933334 0.45546666c17.29386667 0 35.95306667 4.55146667 56.43306666 13.65333334s37.31946667 20.48 49.60746667 33.67786666l216.63253333 233.472C507.44853333 431.44533333 423.25333333 546.5888 423.25333333 681.7568c0 79.18933333 28.672 151.552 76.45866667 207.0752zM313.1168 286.26453333c0-24.576-8.64746667-45.5104-26.3968-62.80533333-17.29386667-17.29386667-38.6848-25.94133333-63.2608-25.94133333s-45.96586667 8.64746667-63.25973333 25.94133333c-17.29493333 17.29493333-26.3968 38.22933333-26.3968 62.80533333s8.64746667 45.51146667 26.3968 62.80533334c17.29386667 17.29493333 38.68373333 25.94133333 63.25973333 25.94133333s45.96693333-8.6464 63.2608-25.94133333c17.74933333-17.29386667 26.3968-38.22933333 26.3968-62.80533334z m668.1024 450.1056c4.096 2.73066667 5.9168 7.73653333 4.096 12.288L961.19466667 805.54666667c-1.8208 4.55146667-6.82666667 7.28213333-11.83253334 5.9168l-64.62613333-16.384-28.21653333 27.76106666 16.384 63.71626667c1.36533333 5.00586667-1.36533333 10.01173333-5.9168 11.83253333L809.64266667 921.6c-4.55146667 1.8208-10.0128 0-12.288-4.096l-34.13333334-56.88853333h-39.1392l-34.13333333 56.88853333c-2.73066667 4.096-7.7376 5.9168-12.74346667 4.096l-57.344-23.66613333c-4.55146667-1.81973333-7.28213333-6.82666667-5.9168-11.83253334l16.384-64.62613333-27.76106666-28.21653333-63.71626667 16.83946666c-5.00586667 1.36533333-10.01173333-1.36533333-11.83253333-5.9168l-23.66613334-56.88853333c-1.81973333-4.55146667 0-10.0128 4.096-12.288l57.344-33.67893333 0.45546667-40.04906667-56.43413333-33.22346667c-4.5504-2.73066667-6.3712-7.73653333-4.096-12.74346666l24.1216-56.88853334c1.81973333-4.55146667 6.82666667-7.28213333 11.83253333-5.9168l63.7152 17.29493334 29.12746667-28.672-16.83946667-63.71626667c-1.36533333-5.00586667 1.36533333-10.01173333 5.9168-11.83253333l57.344-23.21066667c4.55146667-1.8208 10.0128 0 12.288 4.096l33.67786667 56.88853333h39.59466666l33.67893334-56.88853333c2.73066667-4.096 7.73653333-5.9168 12.7424-4.096l57.344 23.66613333c4.55146667 1.81973333 7.28213333 6.82666667 5.9168 11.83253334l-16.83946667 63.7152 28.672 28.672 64.17066667-16.384c5.00693333-1.36533333 10.0128 1.36533333 11.8336 5.9168l23.66506666 56.88853333c1.8208 4.55146667 0 10.0128-4.096 12.288l-57.344 34.13333333-0.4544 39.14026667 56.43306667 34.13333333z m-182.95466667-1.36533333c14.1088-14.1088 22.3008-32.768 22.3008-52.7936 0-20.02453333-7.73653333-38.68373333-22.3008-52.79253333-14.10773333-14.1088-33.2224-21.84533333-53.248-21.84533334-20.02453333 0-39.1392 7.73653333-53.248 21.84533334-29.1264 29.12746667-29.1264 76.45866667 0 106.04053333 14.1088 14.1088 33.22346667 21.84533333 53.248 21.84533333 20.0256-0.4544 39.14026667-8.192 53.248-22.29973333z"  p-id="9151"></path></svg>