<svg t="1705583438381" class="icon" viewBox="0 0 1024 1024" version="1.1" xmlns="http://www.w3.org/2000/svg" p-id="26662" width="200" height="200"><path d="M440.832 280.064s290.304-96.768 400.384 167.936c103.424 258.048-51.712 522.752-167.936 542.208-116.224 19.456-225.792-12.8-206.336-141.824 12.8-64.512 57.856-187.392-38.912-219.648-154.624-51.712-219.648-251.392 12.8-348.672zM208.384 28.672c83.968 0 148.48 64.512 148.48 148.48s-64.512 148.48-148.48 148.48-148.48-57.856-148.48-141.824 65.024-155.136 148.48-155.136z m677.888 116.224c45.056 0 77.312 32.256 77.312 77.312s-32.256 77.312-77.312 77.312S808.96 267.264 808.96 222.208s38.912-77.312 77.312-77.312z m-174.08-96.768c45.056 0 77.312 32.256 77.312 77.312s-32.256 77.312-77.312 77.312S634.88 170.496 634.88 125.44s32.256-77.312 77.312-77.312zM492.544 28.672c45.056 0 77.312 32.256 77.312 77.312S537.6 183.296 492.544 183.296s-77.312-32.256-77.312-77.312S447.488 28.672 492.544 28.672z m0 0" p-id="26663"></path></svg>