<svg t="1705583241386" class="icon" viewBox="0 0 1137 1024" version="1.1" xmlns="http://www.w3.org/2000/svg" p-id="19829" width="200" height="200"><path d="M157.538462 682.666667h52.51282V568.888889c0-78.769231 61.264957-140.034188 135.65812-140.034188h192.547008v-87.521368H433.230769c-17.504274 0-26.25641-13.128205-26.25641-26.25641V144.410256c0-17.504274 8.752137-26.25641 26.25641-26.25641h271.31624c17.504274 0 26.25641 13.128205 26.25641 26.25641v170.666667c0 17.504274-8.752137 26.25641-26.25641 26.25641h-109.40171v83.145299H787.692308c78.769231 0 135.65812 61.264957 135.658119 140.034189v113.777777h52.512821c17.504274 0 26.25641 13.128205 26.25641 26.256411V875.213675c0 17.504274-8.752137 26.25641-26.25641 26.25641h-166.290598c-17.504274 0-26.25641-13.128205-26.256411-26.25641v-170.666666c0-17.504274 8.752137-26.25641 26.256411-26.256411h52.51282V568.888889c0-43.760684-39.384615-83.145299-83.145299-83.145299h-192.547009v196.923077h52.512821c8.752137 0 26.25641 13.128205 26.25641 26.25641v170.666667c0 17.504274-17.504274 26.25641-26.25641 26.25641h-166.290598c-17.504274 0-26.25641-13.128205-26.256411-26.25641v-170.666667c0-17.504274 8.752137-26.25641 26.256411-26.25641H525.128205v-196.923077H350.08547c-43.760684 0-83.145299 39.384615-83.145299 83.145299v113.777778h52.51282c17.504274 0 26.25641 13.128205 26.256411 26.25641v170.666667c0 17.504274-8.752137 26.25641-26.256411 26.25641H157.538462c-17.504274 0-26.25641-13.128205-26.256411-26.25641v-170.666667c0-17.504274 8.752137-26.25641 26.256411-26.25641z" p-id="19830"></path></svg>