<svg t="1701872781860" class="icon" viewBox="0 0 1194 1024" version="1.1" xmlns="http://www.w3.org/2000/svg" p-id="17190" width="200" height="200"><path d="M1147.988855 1023.999573H46.677314A46.506647 46.506647 0 0 1 0 977.748926c0-25.599989 20.906658-46.293314 46.677314-46.293314h1101.311541A46.506647 46.506647 0 0 1 1194.666169 977.748926 46.506647 46.506647 0 0 1 1147.988855 1023.999573zM1073.322219 875.946302H644.010398A46.506647 46.506647 0 0 1 597.333084 829.652988c0-25.557323 20.906658-46.250647 46.677314-46.250648h429.311821a46.506647 46.506647 0 0 1 46.677314 46.250648 46.506647 46.506647 0 0 1-46.677314 46.293314zM181.333258 828.799655l199.807917-53.077312-146.261273-145.023939-53.503978 198.058584m-49.493312 49.066646a68.991971 68.991971 0 0 1-18.133326-66.986639l53.546644-198.10125c6.442664-23.93599 25.301323-42.666649 49.493313-49.066647a70.399971 70.399971 0 0 1 67.583972 17.919993l146.261272 145.066606c17.663993 17.493326 24.57599 43.093315 18.133326 66.986639-6.485331 23.978657-25.343989 42.666649-49.493313 49.066646l-199.807916 53.119978a70.399971 70.399971 0 0 1-67.583972-17.962659z" fill="#999999" p-id="17191"></path><path d="M819.370325 95.914627a11.733328 11.733328 0 0 0-16.511993 0l-494.933127 490.794462a11.519995 11.519995 0 0 0 0 16.341326l108.885288 107.946622c4.565331 4.565331 11.946662 4.565331 16.469326 0L928.255613 220.287908a11.519995 11.519995 0 0 0 0-16.341326l-108.885288-107.946622M885.375631 30.463987l108.885288 107.946622a103.50929 103.50929 0 0 1 0 147.242605l-494.933127 490.751796a105.642623 105.642623 0 0 1-148.522605 0l-108.885288-107.946622a103.50929 103.50929 0 0 1 0-147.199939L736.853026 30.463987a105.642623 105.642623 0 0 1 148.522605 0z" fill="#999999" p-id="17192"></path></svg>